# MagicaVoxel @ Ephtracy

# group
o 

# material
mtllib Trevor-13.mtl
usemtl palette

# normals
vn -1 0 0
vn 1 0 0
vn 0 0 1
vn 0 0 -1
vn 0 -1 0
vn 0 1 0

# texcoords
vt 0.00976563 0.5
vt 0.0683594 0.5
vt 0.978516 0.5
vt 0.986328 0.5

# verts
v -0.3 2.6 -0.8
v -0.3 2.6 -1.1
v -0.3 2.7 -0.8
v -0.3 2.7 -1.1
v -0.2 1.9 -0.7
v -0.2 1.9 -1
v -0.2 2.1 -0.7
v -0.2 2.1 -0.8
v -0.2 2.1 -1
v -0.2 2.1 -1.1
v -0.2 2.2 -0.8
v -0.2 2.2 -0.9
v -0.2 2.2 -1
v -0.2 2.3 -0.8
v -0.2 2.3 -0.9
v -0.2 2.3 -1.1
v -0.2 2.3 -1.2
v -0.2 2.4 -0.8
v -0.2 2.4 -1.1
v -0.2 2.6 -0.7
v -0.2 2.6 -0.8
v -0.2 2.6 -1.1
v -0.2 2.7 -0.7
v -0.2 2.7 -0.8
v -0.2 2.7 -1
v -0.2 2.7 -1.1
v -0.2 2.7 -1.2
v -0.2 2.8 -1
v -0.2 2.8 -1.1
v -0.2 2.9 -0.8
v -0.2 2.9 -1
v -0.1 2 -1
v -0.1 2 -1.1
v -0.1 2.1 -1
v -0.1 2.1 -1.1
v -0.1 2.2 -0.8
v -0.1 2.2 -0.9
v -0.1 2.2 -1.1
v -0.1 2.2 -1.2
v -0.1 2.3 -0.8
v -0.1 2.3 -0.9
v -0.1 2.3 -1.1
v -0.1 2.3 -1.2
v -0.1 2.7 -0.7
v -0.1 2.7 -0.8
v -0.1 2.7 -1.1
v -0.1 2.7 -1.2
v -0.1 2.8 -1
v -0.1 2.8 -1.1
v -0.1 2.8 -1.2
v -0.1 2.9 -0.7
v -0.1 2.9 -0.8
v -0.1 2.9 -1
v -0.1 2.9 -1.1
v -0.1 3 -0.8
v -0.1 3 -1
v 0.1 2.3 -0.8
v 0.1 2.3 -0.9
v 0.1 2.3 -1.1
v 0.1 2.3 -1.2
v 0.1 2.4 -0.8
v 0.1 2.4 -0.9
v 0.1 2.6 -0.8
v 0.1 2.6 -0.9
v 0.1 2.6 -1.1
v 0.1 2.6 -1.2
v -0.1 2.3 -0.8
v -0.1 2.3 -0.9
v -0.1 2.3 -1.1
v -0.1 2.3 -1.2
v -0.1 2.4 -0.8
v -0.1 2.4 -0.9
v -0.1 2.6 -0.8
v -0.1 2.6 -0.9
v -0.1 2.6 -1.1
v -0.1 2.6 -1.2
v 0.1 2 -1
v 0.1 2 -1.1
v 0.1 2.1 -1
v 0.1 2.1 -1.1
v 0.1 2.2 -0.8
v 0.1 2.2 -0.9
v 0.1 2.2 -1.1
v 0.1 2.2 -1.2
v 0.1 2.3 -0.8
v 0.1 2.3 -0.9
v 0.1 2.3 -1.1
v 0.1 2.3 -1.2
v 0.1 2.7 -0.7
v 0.1 2.7 -0.8
v 0.1 2.7 -1.1
v 0.1 2.7 -1.2
v 0.1 2.8 -1
v 0.1 2.8 -1.1
v 0.1 2.8 -1.2
v 0.1 2.9 -0.7
v 0.1 2.9 -0.8
v 0.1 2.9 -1
v 0.1 2.9 -1.1
v 0.1 3 -0.8
v 0.1 3 -1
v 0.2 1.9 -0.7
v 0.2 1.9 -1
v 0.2 2.1 -0.7
v 0.2 2.1 -0.8
v 0.2 2.1 -1
v 0.2 2.1 -1.1
v 0.2 2.2 -0.8
v 0.2 2.2 -0.9
v 0.2 2.2 -1
v 0.2 2.3 -0.8
v 0.2 2.3 -0.9
v 0.2 2.3 -1.1
v 0.2 2.3 -1.2
v 0.2 2.4 -0.8
v 0.2 2.4 -1.1
v 0.2 2.6 -0.7
v 0.2 2.6 -0.8
v 0.2 2.6 -1.1
v 0.2 2.7 -0.7
v 0.2 2.7 -0.8
v 0.2 2.7 -1
v 0.2 2.7 -1.1
v 0.2 2.7 -1.2
v 0.2 2.8 -1
v 0.2 2.8 -1.1
v 0.2 2.9 -0.8
v 0.2 2.9 -1
v 0.3 2.6 -0.8
v 0.3 2.6 -1.1
v 0.3 2.7 -0.8
v 0.3 2.7 -1.1
v -0.2 1.9 -0.7
v -0.2 2.1 -0.7
v -0.2 2.6 -0.7
v -0.2 2.7 -0.7
v -0.1 2.7 -0.7
v -0.1 2.9 -0.7
v 0.1 2.7 -0.7
v 0.1 2.9 -0.7
v 0.2 1.9 -0.7
v 0.2 2.1 -0.7
v 0.2 2.6 -0.7
v 0.2 2.7 -0.7
v -0.3 2.6 -0.8
v -0.3 2.7 -0.8
v -0.2 2.1 -0.8
v -0.2 2.2 -0.8
v -0.2 2.3 -0.8
v -0.2 2.4 -0.8
v -0.2 2.6 -0.8
v -0.2 2.7 -0.8
v -0.2 2.9 -0.8
v -0.1 2.2 -0.8
v -0.1 2.3 -0.8
v -0.1 2.4 -0.8
v -0.1 2.6 -0.8
v -0.1 2.7 -0.8
v -0.1 2.9 -0.8
v -0.1 3 -0.8
v 0.1 2.2 -0.8
v 0.1 2.3 -0.8
v 0.1 2.4 -0.8
v 0.1 2.6 -0.8
v 0.1 2.7 -0.8
v 0.1 2.9 -0.8
v 0.1 3 -0.8
v 0.2 2.1 -0.8
v 0.2 2.2 -0.8
v 0.2 2.3 -0.8
v 0.2 2.4 -0.8
v 0.2 2.6 -0.8
v 0.2 2.7 -0.8
v 0.2 2.9 -0.8
v 0.3 2.6 -0.8
v 0.3 2.7 -0.8
v -0.2 2.2 -0.9
v -0.2 2.3 -0.9
v -0.1 2.2 -0.9
v -0.1 2.3 -0.9
v -0.1 2.4 -0.9
v -0.1 2.6 -0.9
v 0.1 2.2 -0.9
v 0.1 2.3 -0.9
v 0.1 2.4 -0.9
v 0.1 2.6 -0.9
v 0.2 2.2 -0.9
v 0.2 2.3 -0.9
v -0.2 1.9 -1
v -0.2 2.1 -1
v -0.2 2.8 -1
v -0.2 2.9 -1
v -0.1 2 -1
v -0.1 2.1 -1
v -0.1 2.8 -1
v -0.1 2.9 -1
v -0.1 3 -1
v 0.1 2 -1
v 0.1 2.1 -1
v 0.1 2.8 -1
v 0.1 2.9 -1
v 0.1 3 -1
v 0.2 1.9 -1
v 0.2 2.1 -1
v 0.2 2.8 -1
v 0.2 2.9 -1
v -0.3 2.6 -1.1
v -0.3 2.7 -1.1
v -0.2 2.1 -1.1
v -0.2 2.3 -1.1
v -0.2 2.6 -1.1
v -0.2 2.7 -1.1
v -0.2 2.8 -1.1
v -0.1 2 -1.1
v -0.1 2.1 -1.1
v -0.1 2.2 -1.1
v -0.1 2.3 -1.1
v -0.1 2.6 -1.1
v -0.1 2.7 -1.1
v -0.1 2.8 -1.1
v -0.1 2.9 -1.1
v 0.1 2 -1.1
v 0.1 2.1 -1.1
v 0.1 2.2 -1.1
v 0.1 2.3 -1.1
v 0.1 2.6 -1.1
v 0.1 2.7 -1.1
v 0.1 2.8 -1.1
v 0.1 2.9 -1.1
v 0.2 2.1 -1.1
v 0.2 2.3 -1.1
v 0.2 2.6 -1.1
v 0.2 2.7 -1.1
v 0.2 2.8 -1.1
v 0.3 2.6 -1.1
v 0.3 2.7 -1.1
v -0.2 2.3 -1.2
v -0.2 2.7 -1.2
v -0.1 2.2 -1.2
v -0.1 2.3 -1.2
v -0.1 2.6 -1.2
v -0.1 2.7 -1.2
v -0.1 2.8 -1.2
v 0.1 2.2 -1.2
v 0.1 2.3 -1.2
v 0.1 2.6 -1.2
v 0.1 2.7 -1.2
v 0.1 2.8 -1.2
v 0.2 2.3 -1.2
v 0.2 2.7 -1.2
v -0.2 1.9 -0.7
v 0.2 1.9 -0.7
v -0.2 1.9 -1
v 0.2 1.9 -1
v -0.1 2 -1
v 0.1 2 -1
v -0.1 2 -1.1
v 0.1 2 -1.1
v -0.2 2.1 -1
v -0.1 2.1 -1
v 0.1 2.1 -1
v 0.2 2.1 -1
v -0.2 2.1 -1.1
v -0.1 2.1 -1.1
v 0.1 2.1 -1.1
v 0.2 2.1 -1.1
v -0.1 2.2 -1.1
v 0.1 2.2 -1.1
v -0.1 2.2 -1.2
v 0.1 2.2 -1.2
v -0.2 2.3 -0.8
v -0.1 2.3 -0.8
v 0.1 2.3 -0.8
v 0.2 2.3 -0.8
v -0.2 2.3 -0.9
v -0.1 2.3 -0.9
v 0.1 2.3 -0.9
v 0.2 2.3 -0.9
v -0.2 2.3 -1.1
v -0.1 2.3 -1.1
v 0.1 2.3 -1.1
v 0.2 2.3 -1.1
v -0.2 2.3 -1.2
v -0.1 2.3 -1.2
v 0.1 2.3 -1.2
v 0.2 2.3 -1.2
v -0.2 2.6 -0.7
v 0.2 2.6 -0.7
v -0.3 2.6 -0.8
v -0.2 2.6 -0.8
v -0.1 2.6 -0.8
v 0.1 2.6 -0.8
v 0.2 2.6 -0.8
v 0.3 2.6 -0.8
v -0.1 2.6 -0.9
v 0.1 2.6 -0.9
v -0.3 2.6 -1.1
v -0.2 2.6 -1.1
v -0.1 2.6 -1.1
v 0.1 2.6 -1.1
v 0.2 2.6 -1.1
v 0.3 2.6 -1.1
v -0.1 2.6 -1.2
v 0.1 2.6 -1.2
v -0.2 2.1 -0.7
v 0.2 2.1 -0.7
v -0.2 2.1 -0.8
v 0.2 2.1 -0.8
v -0.2 2.2 -0.8
v -0.1 2.2 -0.8
v 0.1 2.2 -0.8
v 0.2 2.2 -0.8
v -0.2 2.2 -0.9
v -0.1 2.2 -0.9
v 0.1 2.2 -0.9
v 0.2 2.2 -0.9
v -0.1 2.3 -0.8
v 0.1 2.3 -0.8
v -0.1 2.3 -0.9
v 0.1 2.3 -0.9
v -0.1 2.3 -1.1
v 0.1 2.3 -1.1
v -0.1 2.3 -1.2
v 0.1 2.3 -1.2
v -0.2 2.7 -0.7
v -0.1 2.7 -0.7
v 0.1 2.7 -0.7
v 0.2 2.7 -0.7
v -0.3 2.7 -0.8
v -0.2 2.7 -0.8
v -0.1 2.7 -0.8
v 0.1 2.7 -0.8
v 0.2 2.7 -0.8
v 0.3 2.7 -0.8
v -0.2 2.7 -1
v 0.2 2.7 -1
v -0.3 2.7 -1.1
v -0.2 2.7 -1.1
v -0.1 2.7 -1.1
v 0.1 2.7 -1.1
v 0.2 2.7 -1.1
v 0.3 2.7 -1.1
v -0.2 2.7 -1.2
v -0.1 2.7 -1.2
v 0.1 2.7 -1.2
v 0.2 2.7 -1.2
v -0.2 2.8 -1
v -0.1 2.8 -1
v 0.1 2.8 -1
v 0.2 2.8 -1
v -0.2 2.8 -1.1
v -0.1 2.8 -1.1
v 0.1 2.8 -1.1
v 0.2 2.8 -1.1
v -0.1 2.8 -1.2
v 0.1 2.8 -1.2
v -0.1 2.9 -0.7
v 0.1 2.9 -0.7
v -0.2 2.9 -0.8
v -0.1 2.9 -0.8
v 0.1 2.9 -0.8
v 0.2 2.9 -0.8
v -0.2 2.9 -1
v -0.1 2.9 -1
v 0.1 2.9 -1
v 0.2 2.9 -1
v -0.1 2.9 -1.1
v 0.1 2.9 -1.1
v -0.1 3 -0.8
v 0.1 3 -0.8
v -0.1 3 -1
v 0.1 3 -1

# faces
f 3/3/1 2/3/1 1/3/1
f 4/3/1 2/3/1 3/3/1
f 7/1/1 6/1/1 5/1/1
f 8/1/1 6/1/1 7/1/1
f 9/1/1 6/1/1 8/1/1
f 11/1/1 9/1/1 8/1/1
f 12/1/1 9/1/1 11/1/1
f 13/4/1 10/4/1 9/4/1
f 13/1/1 9/1/1 12/1/1
f 15/4/1 13/4/1 12/4/1
f 16/4/1 10/4/1 13/4/1
f 16/4/1 13/4/1 15/4/1
f 18/3/1 15/3/1 14/3/1
f 18/3/1 17/3/1 16/3/1
f 18/3/1 16/3/1 15/3/1
f 19/3/1 17/3/1 18/3/1
f 21/4/1 19/4/1 18/4/1
f 22/3/1 17/3/1 19/3/1
f 22/4/1 19/4/1 21/4/1
f 23/3/1 21/3/1 20/3/1
f 24/3/1 21/3/1 23/3/1
f 26/3/1 17/3/1 22/3/1
f 27/3/1 17/3/1 26/3/1
f 28/2/1 25/2/1 24/2/1
f 28/4/1 26/4/1 25/4/1
f 29/4/1 26/4/1 28/4/1
f 30/2/1 28/2/1 24/2/1
f 31/2/1 28/2/1 30/2/1
f 34/4/1 33/4/1 32/4/1
f 35/4/1 33/4/1 34/4/1
f 40/3/1 37/3/1 36/3/1
f 41/3/1 37/3/1 40/3/1
f 42/3/1 39/3/1 38/3/1
f 43/3/1 39/3/1 42/3/1
f 49/4/1 47/4/1 46/4/1
f 50/4/1 47/4/1 49/4/1
f 51/2/1 45/2/1 44/2/1
f 52/2/1 45/2/1 51/2/1
f 53/4/1 49/4/1 48/4/1
f 54/4/1 49/4/1 53/4/1
f 55/2/1 53/2/1 52/2/1
f 56/2/1 53/2/1 55/2/1
f 61/3/1 58/3/1 57/3/1
f 62/3/1 58/3/1 61/3/1
f 63/4/1 62/4/1 61/4/1
f 64/4/1 62/4/1 63/4/1
f 65/3/1 60/3/1 59/3/1
f 66/3/1 60/3/1 65/3/1
f 67/3/2 68/3/2 71/3/2
f 71/3/2 68/3/2 72/3/2
f 71/4/2 72/4/2 73/4/2
f 73/4/2 72/4/2 74/4/2
f 69/3/2 70/3/2 75/3/2
f 75/3/2 70/3/2 76/3/2
f 77/4/2 78/4/2 79/4/2
f 79/4/2 78/4/2 80/4/2
f 81/3/2 82/3/2 85/3/2
f 85/3/2 82/3/2 86/3/2
f 83/3/2 84/3/2 87/3/2
f 87/3/2 84/3/2 88/3/2
f 91/4/2 92/4/2 94/4/2
f 94/4/2 92/4/2 95/4/2
f 89/2/2 90/2/2 96/2/2
f 96/2/2 90/2/2 97/2/2
f 93/4/2 94/4/2 98/4/2
f 98/4/2 94/4/2 99/4/2
f 97/2/2 98/2/2 100/2/2
f 100/2/2 98/2/2 101/2/2
f 102/1/2 103/1/2 104/1/2
f 104/1/2 103/1/2 105/1/2
f 105/1/2 103/1/2 106/1/2
f 105/1/2 106/1/2 108/1/2
f 108/1/2 106/1/2 109/1/2
f 106/4/2 107/4/2 110/4/2
f 109/1/2 106/1/2 110/1/2
f 109/4/2 110/4/2 112/4/2
f 110/4/2 107/4/2 113/4/2
f 112/4/2 110/4/2 113/4/2
f 111/3/2 112/3/2 115/3/2
f 113/3/2 114/3/2 115/3/2
f 112/3/2 113/3/2 115/3/2
f 115/3/2 114/3/2 116/3/2
f 115/4/2 116/4/2 118/4/2
f 116/3/2 114/3/2 119/3/2
f 118/4/2 116/4/2 119/4/2
f 117/3/2 118/3/2 120/3/2
f 120/3/2 118/3/2 121/3/2
f 119/3/2 114/3/2 123/3/2
f 123/3/2 114/3/2 124/3/2
f 121/2/2 122/2/2 125/2/2
f 122/4/2 123/4/2 125/4/2
f 125/4/2 123/4/2 126/4/2
f 121/2/2 125/2/2 127/2/2
f 127/2/2 125/2/2 128/2/2
f 129/3/2 130/3/2 131/3/2
f 131/3/2 130/3/2 132/3/2
f 137/3/3 136/3/3 135/3/3
f 139/3/3 137/3/3 135/3/3
f 139/2/3 138/2/3 137/2/3
f 140/2/3 138/2/3 139/2/3
f 141/1/3 134/1/3 133/1/3
f 142/1/3 134/1/3 141/1/3
f 143/3/3 139/3/3 135/3/3
f 144/3/3 139/3/3 143/3/3
f 151/3/3 146/3/3 145/3/3
f 152/3/3 146/3/3 151/3/3
f 154/1/3 148/1/3 147/1/3
f 155/3/3 150/3/3 149/3/3
f 156/4/3 151/4/3 150/4/3
f 156/3/3 150/3/3 155/3/3
f 157/4/3 151/4/3 156/4/3
f 158/2/3 153/2/3 152/2/3
f 159/2/3 153/2/3 158/2/3
f 161/1/3 154/1/3 147/1/3
f 161/3/3 155/3/3 154/3/3
f 162/3/3 155/3/3 161/3/3
f 166/2/3 160/2/3 159/2/3
f 167/2/3 160/2/3 166/2/3
f 168/1/3 161/1/3 147/1/3
f 169/1/3 161/1/3 168/1/3
f 170/3/3 163/3/3 162/3/3
f 171/4/3 164/4/3 163/4/3
f 171/3/3 163/3/3 170/3/3
f 172/4/3 164/4/3 171/4/3
f 173/2/3 166/2/3 165/2/3
f 174/2/3 166/2/3 173/2/3
f 175/3/3 173/3/3 172/3/3
f 176/3/3 173/3/3 175/3/3
f 179/4/3 178/4/3 177/4/3
f 180/4/3 178/4/3 179/4/3
f 184/4/3 182/4/3 181/4/3
f 184/4/3 181/4/3 180/4/3
f 185/4/3 182/4/3 184/4/3
f 186/4/3 182/4/3 185/4/3
f 187/4/3 184/4/3 183/4/3
f 188/4/3 184/4/3 187/4/3
f 189/1/4 190/1/4 193/1/4
f 193/1/4 190/1/4 194/1/4
f 191/2/4 192/2/4 195/2/4
f 195/2/4 192/2/4 196/2/4
f 189/1/4 193/1/4 198/1/4
f 196/2/4 197/2/4 201/2/4
f 201/2/4 197/2/4 202/2/4
f 198/1/4 199/1/4 203/1/4
f 189/1/4 198/1/4 203/1/4
f 203/1/4 199/1/4 204/1/4
f 200/2/4 201/2/4 205/2/4
f 205/2/4 201/2/4 206/2/4
f 207/3/4 208/3/4 211/3/4
f 211/3/4 208/3/4 212/3/4
f 209/4/4 210/4/4 215/4/4
f 215/4/4 210/4/4 216/4/4
f 216/4/4 210/4/4 217/4/4
f 212/4/4 213/4/4 219/4/4
f 219/4/4 213/4/4 220/4/4
f 214/4/4 215/4/4 222/4/4
f 215/4/4 216/4/4 222/4/4
f 222/4/4 216/4/4 223/4/4
f 223/4/4 216/4/4 224/4/4
f 217/4/4 218/4/4 225/4/4
f 225/4/4 218/4/4 226/4/4
f 220/4/4 221/4/4 228/4/4
f 228/4/4 221/4/4 229/4/4
f 223/4/4 224/4/4 230/4/4
f 224/4/4 225/4/4 230/4/4
f 230/4/4 225/4/4 231/4/4
f 227/4/4 228/4/4 233/4/4
f 233/4/4 228/4/4 234/4/4
f 232/3/4 233/3/4 235/3/4
f 235/3/4 233/3/4 236/3/4
f 237/3/4 238/3/4 240/3/4
f 240/3/4 238/3/4 241/3/4
f 241/3/4 238/3/4 242/3/4
f 239/3/4 240/3/4 244/3/4
f 244/3/4 240/3/4 245/3/4
f 242/4/4 243/4/4 246/4/4
f 241/4/4 242/4/4 246/4/4
f 246/4/4 243/4/4 247/4/4
f 247/4/4 243/4/4 248/4/4
f 245/3/4 246/3/4 249/3/4
f 246/3/4 247/3/4 249/3/4
f 249/3/4 247/3/4 250/3/4
f 253/1/5 252/1/5 251/1/5
f 254/1/5 252/1/5 253/1/5
f 257/4/5 256/4/5 255/4/5
f 258/4/5 256/4/5 257/4/5
f 263/4/5 260/4/5 259/4/5
f 264/4/5 260/4/5 263/4/5
f 265/4/5 262/4/5 261/4/5
f 266/4/5 262/4/5 265/4/5
f 269/3/5 268/3/5 267/3/5
f 270/3/5 268/3/5 269/3/5
f 275/3/5 272/3/5 271/3/5
f 276/3/5 272/3/5 275/3/5
f 277/3/5 274/3/5 273/3/5
f 278/3/5 274/3/5 277/3/5
f 283/3/5 280/3/5 279/3/5
f 284/3/5 280/3/5 283/3/5
f 285/3/5 282/3/5 281/3/5
f 286/3/5 282/3/5 285/3/5
f 290/3/5 288/3/5 287/3/5
f 291/3/5 288/3/5 290/3/5
f 292/3/5 288/3/5 291/3/5
f 293/3/5 288/3/5 292/3/5
f 295/4/5 292/4/5 291/4/5
f 296/4/5 292/4/5 295/4/5
f 297/3/5 290/3/5 289/3/5
f 298/3/5 290/3/5 297/3/5
f 301/3/5 294/3/5 293/3/5
f 302/3/5 294/3/5 301/3/5
f 303/4/5 300/4/5 299/4/5
f 304/4/5 300/4/5 303/4/5
f 305/1/6 306/1/6 307/1/6
f 307/1/6 306/1/6 308/1/6
f 309/1/6 310/1/6 313/1/6
f 313/1/6 310/1/6 314/1/6
f 311/1/6 312/1/6 315/1/6
f 315/1/6 312/1/6 316/1/6
f 317/3/6 318/3/6 319/3/6
f 319/3/6 318/3/6 320/3/6
f 321/3/6 322/3/6 323/3/6
f 323/3/6 322/3/6 324/3/6
f 325/3/6 326/3/6 330/3/6
f 330/3/6 326/3/6 331/3/6
f 327/3/6 328/3/6 332/3/6
f 332/3/6 328/3/6 333/3/6
f 329/3/6 330/3/6 335/3/6
f 333/3/6 334/3/6 336/3/6
f 329/3/6 335/3/6 337/3/6
f 337/3/6 335/3/6 338/3/6
f 336/3/6 334/3/6 341/3/6
f 341/3/6 334/3/6 342/3/6
f 338/3/6 339/3/6 343/3/6
f 343/3/6 339/3/6 344/3/6
f 340/3/6 341/3/6 345/3/6
f 345/3/6 341/3/6 346/3/6
f 347/4/6 348/4/6 351/4/6
f 351/4/6 348/4/6 352/4/6
f 349/4/6 350/4/6 353/4/6
f 353/4/6 350/4/6 354/4/6
f 352/4/6 353/4/6 355/4/6
f 355/4/6 353/4/6 356/4/6
f 357/2/6 358/2/6 360/2/6
f 360/2/6 358/2/6 361/2/6
f 359/2/6 360/2/6 363/2/6
f 363/2/6 360/2/6 364/2/6
f 361/2/6 362/2/6 365/2/6
f 365/2/6 362/2/6 366/2/6
f 364/4/6 365/4/6 367/4/6
f 367/4/6 365/4/6 368/4/6
f 369/2/6 370/2/6 371/2/6
f 371/2/6 370/2/6 372/2/6
