# MagicaVoxel @ Ephtracy

# group
o 

# material
mtllib Trevor-7.mtl
usemtl palette

# normals
vn -1 0 0
vn 1 0 0
vn 0 0 -1
vn 0 0 1
vn 0 -1 0
vn 0 1 0

# texcoords
vt 0.0683594 0.5
vt 0.208984 0.5
vt 0.869141 0.5
vt 0.978516 0.5
vt 0.982422 0.5

# verts
v -0.4 1.8 0.5
v -0.4 1.8 0.6
v -0.4 2.2 0.5
v -0.4 2.2 0.6
v -0.3 1.5 0.4
v -0.3 1.5 0.5
v -0.3 1.6 0.3
v -0.3 1.6 0.4
v -0.3 1.6 0.5
v -0.3 1.6 0.6
v -0.3 1.7 0.6
v -0.3 1.7 0.7
v -0.3 1.8 0.5
v -0.3 1.8 0.6
v -0.3 1.8 0.7
v -0.3 2.1 0.2
v -0.3 2.1 0.3
v -0.3 2.2 0.5
v -0.3 2.2 0.6
v -0.3 2.2 0.7
v -0.3 2.3 0.1
v -0.3 2.3 0.2
v -0.3 2.3 0.5
v -0.3 2.4 0.1
v -0.3 2.4 0.3
v -0.3 2.4 0.5
v -0.3 2.4 0.6
v -0.3 2.5 0.3
v -0.3 2.5 0.5
v -0.2 1 0.4
v -0.2 1 0.7
v -0.2 1.2 0.4
v -0.2 1.2 0.6
v -0.2 1.2 0.7
v -0.2 1.3 0.6
v -0.2 1.3 0.7
v -0.2 1.4 0.3
v -0.2 1.4 0.4
v -0.2 1.5 0.4
v -0.2 1.5 0.5
v -0.2 1.6 0.2
v -0.2 1.6 0.3
v -0.2 1.6 0.4
v -0.2 1.6 0.5
v -0.2 1.6 0.6
v -0.2 1.6 0.7
v -0.2 1.6 0.8
v -0.2 1.7 0.6
v -0.2 1.7 0.7
v -0.2 1.7 0.8
v -0.2 2.1 0.1
v -0.2 2.1 0.2
v -0.2 2.1 0.3
v -0.2 2.2 0.6
v -0.2 2.2 0.7
v -0.2 2.3 0.1
v -0.2 2.3 0.2
v -0.2 2.3 0.6
v -0.2 2.3 0.7
v -0.2 2.4 0.2
v -0.2 2.4 0.3
v -0.2 2.4 0.5
v -0.2 2.4 0.6
v -0.2 2.5 0.3
v -0.2 2.5 0.5
v -0.2 2.5 0.6
v -0.2 2.6 0.2
v -0.2 2.6 0.5
v -0.1 1.2 0.6
v -0.1 1.2 0.7
v -0.1 1.3 0.3
v -0.1 1.3 0.4
v -0.1 1.3 0.6
v -0.1 1.3 0.7
v -0.1 1.4 0.3
v -0.1 1.4 0.4
v -0.1 2.3 0.6
v -0.1 2.3 0.7
v -0.1 2.4 0.6
v -0.1 2.4 0.7
v -0.1 2.5 0.5
v -0.1 2.5 0.6
v -0.1 2.6 0.5
v -0.1 2.6 0.6
v -0.1 2.1 0.1
v -0.1 2.1 0.2
v -0.1 2.2 0.1
v -0.1 2.2 0.2
v -0.1 2.3 0.1
v -0.1 2.3 0.2
v -0.1 2.4 0.1
v -0.1 2.4 0.2
v 0.1 1 0.6
v 0.1 1 0.7
v 0.1 1.2 0.6
v 0.1 1.2 0.7
v 0.1 1.3 0.3
v 0.1 1.3 0.4
v 0.1 1.4 0.3
v 0.1 1.4 0.4
v 0.1 1.4 0.6
v 0.1 1.4 0.7
v 0.1 1.9 0.6
v 0.1 1.9 0.7
v 0.1 2.2 0.1
v 0.1 2.2 0.2
v 0.1 2.3 0.1
v 0.1 2.3 0.2
v 0.1 2.4 0.6
v 0.1 2.4 0.7
v 0.2 1 0.4
v 0.2 1 0.6
v 0.2 1.2 0.4
v 0.2 1.2 0.6
v 0.2 1.4 0.3
v 0.2 1.4 0.4
v 0.2 1.4 0.6
v 0.2 1.4 0.7
v 0.2 1.5 0.4
v 0.2 1.5 0.5
v 0.2 1.6 0.2
v 0.2 1.6 0.3
v 0.2 1.6 0.4
v 0.2 1.6 0.5
v 0.2 1.6 0.6
v 0.2 1.6 0.7
v 0.2 1.6 0.8
v 0.2 1.7 0.6
v 0.2 1.7 0.7
v 0.2 1.7 0.8
v 0.2 1.8 0.6
v 0.2 1.8 0.7
v 0.2 1.9 0.6
v 0.2 1.9 0.7
v 0.2 2.1 0.2
v 0.2 2.1 0.3
v 0.2 2.5 0.5
v 0.2 2.5 0.6
v 0.2 2.6 0.5
v 0.2 2.6 0.6
v 0.3 1.5 0.4
v 0.3 1.5 0.5
v 0.3 1.6 0.3
v 0.3 1.6 0.4
v 0.3 1.6 0.5
v 0.3 1.6 0.6
v 0.3 1.7 0.6
v 0.3 1.7 0.7
v 0.3 1.8 0.5
v 0.3 1.8 0.6
v 0.3 1.8 0.7
v 0.3 1.9 0.4
v 0.3 1.9 0.5
v 0.3 1.9 0.6
v 0.3 2.1 0.2
v 0.3 2.1 0.3
v 0.3 2.1 0.4
v 0.3 2.1 0.5
v 0.3 2.2 0.2
v 0.3 2.2 0.3
v 0.3 2.2 0.4
v 0.3 2.3 0.2
v 0.3 2.3 0.3
v 0.3 2.3 0.4
v 0.3 2.4 0.3
v 0.3 2.4 0.4
v 0.3 2.4 0.5
v 0.3 2.4 0.6
v 0.3 2.5 0.4
v 0.3 2.5 0.5
v 0.3 2.5 0.6
v 0.3 2.6 0.2
v 0.3 2.6 0.5
v 0.4 1.8 0.5
v 0.4 1.8 0.6
v 0.4 1.9 0.4
v 0.4 1.9 0.5
v 0.4 1.9 0.6
v 0.4 2.1 0.3
v 0.4 2.1 0.4
v 0.4 2.1 0.5
v 0.4 2.2 0.2
v 0.4 2.2 0.3
v 0.4 2.2 0.4
v 0.4 2.3 0.2
v 0.4 2.3 0.3
v 0.4 2.3 0.4
v 0.4 2.4 0.3
v 0.4 2.4 0.4
v 0.4 2.4 0.5
v 0.4 2.5 0.4
v 0.4 2.5 0.5
v -0.3 2.3 0.1
v -0.3 2.4 0.1
v -0.2 2.1 0.1
v -0.2 2.3 0.1
v -0.2 2.4 0.1
v -0.1 2.1 0.1
v -0.1 2.2 0.1
v -0.1 2.3 0.1
v -0.1 2.4 0.1
v 0.1 2.2 0.1
v 0.1 2.3 0.1
v -0.3 2.1 0.2
v -0.3 2.3 0.2
v -0.2 1.6 0.2
v -0.2 2.1 0.2
v -0.2 2.3 0.2
v -0.2 2.4 0.2
v -0.2 2.6 0.2
v -0.1 2.1 0.2
v -0.1 2.2 0.2
v -0.1 2.3 0.2
v -0.1 2.4 0.2
v 0.1 2.2 0.2
v 0.1 2.3 0.2
v 0.2 1.6 0.2
v 0.2 2.1 0.2
v 0.3 2.1 0.2
v 0.3 2.2 0.2
v 0.3 2.3 0.2
v 0.3 2.6 0.2
v 0.4 2.2 0.2
v 0.4 2.3 0.2
v -0.3 1.6 0.3
v -0.3 2.1 0.3
v -0.3 2.4 0.3
v -0.3 2.5 0.3
v -0.2 1.4 0.3
v -0.2 1.6 0.3
v -0.2 2.1 0.3
v -0.2 2.4 0.3
v -0.2 2.5 0.3
v -0.1 1.3 0.3
v -0.1 1.4 0.3
v 0.1 1.3 0.3
v 0.1 1.4 0.3
v 0.2 1.4 0.3
v 0.2 1.6 0.3
v 0.2 2.1 0.3
v 0.3 1.6 0.3
v 0.3 2.1 0.3
v 0.3 2.2 0.3
v 0.3 2.3 0.3
v 0.3 2.4 0.3
v 0.4 2.1 0.3
v 0.4 2.2 0.3
v 0.4 2.3 0.3
v 0.4 2.4 0.3
v -0.3 1.5 0.4
v -0.3 1.6 0.4
v -0.2 1 0.4
v -0.2 1.2 0.4
v -0.2 1.4 0.4
v -0.2 1.5 0.4
v -0.2 1.6 0.4
v -0.1 1.3 0.4
v -0.1 1.4 0.4
v 0.1 1.3 0.4
v 0.1 1.4 0.4
v 0.2 1 0.4
v 0.2 1.2 0.4
v 0.2 1.4 0.4
v 0.2 1.5 0.4
v 0.2 1.6 0.4
v 0.3 1.5 0.4
v 0.3 1.6 0.4
v 0.3 1.9 0.4
v 0.3 2.1 0.4
v 0.3 2.4 0.4
v 0.3 2.5 0.4
v 0.4 1.9 0.4
v 0.4 2.1 0.4
v 0.4 2.4 0.4
v 0.4 2.5 0.4
v -0.4 1.8 0.5
v -0.4 2.2 0.5
v -0.3 1.8 0.5
v -0.3 2.2 0.5
v 0.3 1.8 0.5
v 0.3 1.9 0.5
v 0.4 1.8 0.5
v 0.4 1.9 0.5
v 0.3 2.2 0.3
v 0.3 2.3 0.3
v 0.4 2.2 0.3
v 0.4 2.3 0.3
v 0.3 2.1 0.4
v 0.3 2.2 0.4
v 0.3 2.3 0.4
v 0.3 2.4 0.4
v 0.4 2.1 0.4
v 0.4 2.2 0.4
v 0.4 2.3 0.4
v 0.4 2.4 0.4
v -0.3 1.5 0.5
v -0.3 1.6 0.5
v -0.3 2.4 0.5
v -0.3 2.5 0.5
v -0.2 1.5 0.5
v -0.2 1.6 0.5
v -0.2 2.4 0.5
v -0.2 2.5 0.5
v -0.2 2.6 0.5
v -0.1 2.5 0.5
v -0.1 2.6 0.5
v 0.2 1.5 0.5
v 0.2 1.6 0.5
v 0.2 2.5 0.5
v 0.2 2.6 0.5
v 0.3 1.5 0.5
v 0.3 1.6 0.5
v 0.3 1.9 0.5
v 0.3 2.1 0.5
v 0.3 2.4 0.5
v 0.3 2.5 0.5
v 0.3 2.6 0.5
v 0.4 1.9 0.5
v 0.4 2.1 0.5
v 0.4 2.4 0.5
v 0.4 2.5 0.5
v -0.4 1.8 0.6
v -0.4 2.2 0.6
v -0.3 1.6 0.6
v -0.3 1.7 0.6
v -0.3 1.8 0.6
v -0.3 2.2 0.6
v -0.3 2.4 0.6
v -0.2 1.2 0.6
v -0.2 1.3 0.6
v -0.2 1.6 0.6
v -0.2 1.7 0.6
v -0.2 2.2 0.6
v -0.2 2.3 0.6
v -0.2 2.4 0.6
v -0.2 2.5 0.6
v -0.1 1.2 0.6
v -0.1 1.3 0.6
v -0.1 2.3 0.6
v -0.1 2.4 0.6
v -0.1 2.5 0.6
v -0.1 2.6 0.6
v 0.1 1 0.6
v 0.1 1.2 0.6
v 0.1 1.4 0.6
v 0.1 1.9 0.6
v 0.1 2.4 0.6
v 0.2 1 0.6
v 0.2 1.2 0.6
v 0.2 1.4 0.6
v 0.2 1.6 0.6
v 0.2 1.7 0.6
v 0.2 1.8 0.6
v 0.2 1.9 0.6
v 0.2 2.4 0.6
v 0.2 2.5 0.6
v 0.2 2.6 0.6
v 0.3 1.6 0.6
v 0.3 1.7 0.6
v 0.3 1.8 0.6
v 0.3 1.9 0.6
v 0.3 2.4 0.6
v 0.3 2.5 0.6
v 0.4 1.8 0.6
v 0.4 1.9 0.6
v -0.3 1.7 0.7
v -0.3 1.8 0.7
v -0.3 2.2 0.7
v -0.2 1 0.7
v -0.2 1.2 0.7
v -0.2 1.3 0.7
v -0.2 1.6 0.7
v -0.2 1.7 0.7
v -0.2 1.8 0.7
v -0.2 2.2 0.7
v -0.2 2.3 0.7
v -0.1 1.2 0.7
v -0.1 1.3 0.7
v -0.1 2.3 0.7
v -0.1 2.4 0.7
v 0.1 1 0.7
v 0.1 1.2 0.7
v 0.1 1.4 0.7
v 0.1 1.9 0.7
v 0.1 2.4 0.7
v 0.2 1.4 0.7
v 0.2 1.6 0.7
v 0.2 1.7 0.7
v 0.2 1.8 0.7
v 0.2 1.9 0.7
v 0.3 1.7 0.7
v 0.3 1.8 0.7
v -0.2 1.6 0.8
v -0.2 1.7 0.8
v 0.2 1.6 0.8
v 0.2 1.7 0.8
v -0.2 1 0.4
v 0.2 1 0.4
v 0.1 1 0.6
v 0.2 1 0.6
v -0.2 1 0.7
v 0.1 1 0.7
v -0.1 1.3 0.3
v 0.1 1.3 0.3
v -0.1 1.3 0.4
v 0.1 1.3 0.4
v -0.2 1.3 0.6
v -0.1 1.3 0.6
v -0.2 1.3 0.7
v -0.1 1.3 0.7
v -0.2 1.4 0.3
v -0.1 1.4 0.3
v 0.1 1.4 0.3
v 0.2 1.4 0.3
v -0.2 1.4 0.4
v -0.1 1.4 0.4
v 0.1 1.4 0.4
v 0.2 1.4 0.4
v 0.1 1.4 0.6
v 0.2 1.4 0.6
v 0.1 1.4 0.7
v 0.2 1.4 0.7
v -0.3 1.5 0.4
v -0.2 1.5 0.4
v 0.2 1.5 0.4
v 0.3 1.5 0.4
v -0.3 1.5 0.5
v -0.2 1.5 0.5
v 0.2 1.5 0.5
v 0.3 1.5 0.5
v -0.2 1.6 0.2
v 0.2 1.6 0.2
v -0.3 1.6 0.3
v -0.2 1.6 0.3
v 0.2 1.6 0.3
v 0.3 1.6 0.3
v -0.3 1.6 0.4
v -0.2 1.6 0.4
v 0.2 1.6 0.4
v 0.3 1.6 0.4
v -0.3 1.6 0.5
v -0.2 1.6 0.5
v 0.2 1.6 0.5
v 0.3 1.6 0.5
v -0.3 1.6 0.6
v -0.2 1.6 0.6
v 0.2 1.6 0.6
v 0.3 1.6 0.6
v -0.2 1.6 0.7
v 0.2 1.6 0.7
v -0.2 1.6 0.8
v 0.2 1.6 0.8
v -0.3 1.7 0.6
v -0.2 1.7 0.6
v 0.2 1.7 0.6
v 0.3 1.7 0.6
v -0.3 1.7 0.7
v -0.2 1.7 0.7
v 0.2 1.7 0.7
v 0.3 1.7 0.7
v -0.4 1.8 0.5
v -0.3 1.8 0.5
v 0.3 1.8 0.5
v 0.4 1.8 0.5
v -0.4 1.8 0.6
v -0.3 1.8 0.6
v 0.3 1.8 0.6
v 0.4 1.8 0.6
v 0.3 1.9 0.4
v 0.4 1.9 0.4
v 0.3 1.9 0.5
v 0.4 1.9 0.5
v -0.2 2.1 0.1
v -0.1 2.1 0.1
v -0.3 2.1 0.2
v -0.2 2.1 0.2
v -0.1 2.1 0.2
v 0.2 2.1 0.2
v 0.3 2.1 0.2
v -0.3 2.1 0.3
v -0.2 2.1 0.3
v 0.2 2.1 0.3
v 0.3 2.1 0.3
v 0.4 2.1 0.3
v 0.3 2.1 0.4
v 0.4 2.1 0.4
v -0.1 2.2 0.1
v 0.1 2.2 0.1
v -0.1 2.2 0.2
v 0.1 2.2 0.2
v 0.3 2.2 0.2
v 0.4 2.2 0.2
v 0.3 2.2 0.3
v 0.4 2.2 0.3
v -0.3 2.3 0.1
v -0.2 2.3 0.1
v -0.3 2.3 0.2
v -0.2 2.3 0.2
v 0.3 2.3 0.3
v 0.4 2.3 0.3
v 0.3 2.3 0.4
v 0.4 2.3 0.4
v 0.3 2.4 0.4
v 0.4 2.4 0.4
v 0.3 2.4 0.5
v 0.4 2.4 0.5
v -0.2 1.2 0.6
v -0.1 1.2 0.6
v -0.2 1.2 0.7
v -0.1 1.2 0.7
v -0.2 1.7 0.7
v 0.2 1.7 0.7
v -0.2 1.7 0.8
v 0.2 1.7 0.8
v 0.2 1.8 0.6
v 0.3 1.8 0.6
v 0.2 1.8 0.7
v 0.3 1.8 0.7
v 0.3 1.9 0.5
v 0.4 1.9 0.5
v 0.1 1.9 0.6
v 0.2 1.9 0.6
v 0.3 1.9 0.6
v 0.4 1.9 0.6
v 0.1 1.9 0.7
v 0.2 1.9 0.7
v 0.3 2.1 0.4
v 0.4 2.1 0.4
v 0.3 2.1 0.5
v 0.4 2.1 0.5
v 0.3 2.2 0.3
v 0.4 2.2 0.3
v 0.3 2.2 0.4
v 0.4 2.2 0.4
v -0.4 2.2 0.5
v -0.3 2.2 0.5
v -0.4 2.2 0.6
v -0.3 2.2 0.6
v -0.2 2.2 0.6
v -0.3 2.2 0.7
v -0.2 2.2 0.7
v -0.1 2.3 0.1
v 0.1 2.3 0.1
v -0.1 2.3 0.2
v 0.1 2.3 0.2
v 0.3 2.3 0.2
v 0.4 2.3 0.2
v 0.3 2.3 0.3
v 0.4 2.3 0.3
v -0.2 2.3 0.6
v -0.1 2.3 0.6
v -0.2 2.3 0.7
v -0.1 2.3 0.7
v -0.3 2.4 0.1
v -0.2 2.4 0.1
v -0.1 2.4 0.1
v -0.2 2.4 0.2
v -0.1 2.4 0.2
v -0.3 2.4 0.3
v -0.2 2.4 0.3
v 0.3 2.4 0.3
v 0.4 2.4 0.3
v 0.3 2.4 0.4
v 0.4 2.4 0.4
v -0.3 2.4 0.5
v -0.2 2.4 0.5
v -0.3 2.4 0.6
v -0.2 2.4 0.6
v -0.1 2.4 0.6
v 0.1 2.4 0.6
v -0.1 2.4 0.7
v 0.1 2.4 0.7
v -0.3 2.5 0.3
v -0.2 2.5 0.3
v 0.3 2.5 0.4
v 0.4 2.5 0.4
v -0.3 2.5 0.5
v -0.2 2.5 0.5
v -0.1 2.5 0.5
v 0.2 2.5 0.5
v 0.3 2.5 0.5
v 0.4 2.5 0.5
v -0.2 2.5 0.6
v -0.1 2.5 0.6
v 0.2 2.5 0.6
v 0.3 2.5 0.6
v -0.2 2.6 0.2
v 0.3 2.6 0.2
v -0.2 2.6 0.5
v -0.1 2.6 0.5
v 0.2 2.6 0.5
v 0.3 2.6 0.5
v -0.1 2.6 0.6
v 0.2 2.6 0.6

# faces
f 1/4/1 2/4/1 3/4/1
f 3/4/1 2/4/1 4/4/1
f 5/2/1 6/2/1 8/2/1
f 8/2/1 6/2/1 9/2/1
f 7/2/1 8/2/1 11/2/1
f 9/2/1 10/2/1 11/2/1
f 8/2/1 9/2/1 11/2/1
f 7/2/1 11/2/1 13/2/1
f 11/4/1 12/4/1 14/4/1
f 13/2/1 11/2/1 14/2/1
f 14/4/1 12/4/1 15/4/1
f 7/2/1 13/2/1 17/2/1
f 17/2/1 13/2/1 18/2/1
f 16/2/1 17/2/1 18/2/1
f 14/5/1 15/5/1 19/5/1
f 19/5/1 15/5/1 20/5/1
f 16/2/1 18/2/1 22/2/1
f 18/4/1 19/4/1 23/4/1
f 22/2/1 18/2/1 23/2/1
f 21/3/1 22/3/1 24/3/1
f 22/3/1 23/3/1 24/3/1
f 24/3/1 23/3/1 25/3/1
f 23/4/1 19/4/1 26/4/1
f 25/3/1 23/3/1 26/3/1
f 26/4/1 19/4/1 27/4/1
f 25/3/1 26/3/1 28/3/1
f 28/3/1 26/3/1 29/3/1
f 30/1/1 31/1/1 32/1/1
f 32/1/1 31/1/1 33/1/1
f 33/1/1 31/1/1 34/1/1
f 32/2/1 33/2/1 35/2/1
f 32/2/1 35/2/1 38/2/1
f 35/2/1 36/2/1 38/2/1
f 38/2/1 36/2/1 39/2/1
f 37/2/1 38/2/1 39/2/1
f 39/2/1 36/2/1 40/2/1
f 37/2/1 39/2/1 42/2/1
f 42/2/1 39/2/1 43/2/1
f 40/2/1 36/2/1 44/2/1
f 44/2/1 36/2/1 45/2/1
f 45/2/1 36/2/1 46/2/1
f 45/2/1 46/2/1 48/2/1
f 46/4/1 47/4/1 49/4/1
f 48/2/1 46/2/1 49/2/1
f 49/4/1 47/4/1 50/4/1
f 41/2/1 42/2/1 52/2/1
f 52/2/1 42/2/1 53/2/1
f 51/2/1 52/2/1 56/2/1
f 56/2/1 52/2/1 57/2/1
f 54/5/1 55/5/1 58/5/1
f 58/5/1 55/5/1 59/5/1
f 60/3/1 61/3/1 64/3/1
f 62/4/1 63/4/1 65/4/1
f 65/4/1 63/4/1 66/4/1
f 60/3/1 64/3/1 67/3/1
f 64/3/1 65/3/1 67/3/1
f 67/3/1 65/3/1 68/3/1
f 69/2/1 70/2/1 73/2/1
f 73/2/1 70/2/1 74/2/1
f 71/2/1 72/2/1 75/2/1
f 75/2/1 72/2/1 76/2/1
f 77/5/1 78/5/1 79/5/1
f 79/5/1 78/5/1 80/5/1
f 81/4/1 82/4/1 83/4/1
f 83/4/1 82/4/1 84/4/1
f 87/2/2 86/2/2 85/2/2
f 88/2/2 86/2/2 87/2/2
f 91/2/2 90/2/2 89/2/2
f 92/2/2 90/2/2 91/2/2
f 95/1/2 94/1/2 93/1/2
f 96/1/2 94/1/2 95/1/2
f 99/2/2 98/2/2 97/2/2
f 100/2/2 98/2/2 99/2/2
f 101/2/2 96/2/2 95/2/2
f 102/2/2 96/2/2 101/2/2
f 107/2/2 106/2/2 105/2/2
f 108/2/2 106/2/2 107/2/2
f 109/5/2 104/5/2 103/5/2
f 110/5/2 104/5/2 109/5/2
f 113/1/2 112/1/2 111/1/2
f 114/1/2 112/1/2 113/1/2
f 116/2/2 114/2/2 113/2/2
f 117/2/2 114/2/2 116/2/2
f 119/2/2 117/2/2 116/2/2
f 119/2/2 118/2/2 117/2/2
f 119/2/2 116/2/2 115/2/2
f 120/2/2 118/2/2 119/2/2
f 122/2/2 119/2/2 115/2/2
f 123/2/2 119/2/2 122/2/2
f 124/2/2 118/2/2 120/2/2
f 125/2/2 118/2/2 124/2/2
f 126/2/2 118/2/2 125/2/2
f 128/2/2 126/2/2 125/2/2
f 129/4/2 127/4/2 126/4/2
f 129/2/2 126/2/2 128/2/2
f 130/4/2 127/4/2 129/4/2
f 133/5/2 132/5/2 131/5/2
f 134/5/2 132/5/2 133/5/2
f 135/2/2 122/2/2 121/2/2
f 136/2/2 122/2/2 135/2/2
f 139/4/2 138/4/2 137/4/2
f 140/4/2 138/4/2 139/4/2
f 144/2/2 142/2/2 141/2/2
f 145/2/2 142/2/2 144/2/2
f 147/2/2 144/2/2 143/2/2
f 147/2/2 146/2/2 145/2/2
f 147/2/2 145/2/2 144/2/2
f 149/2/2 147/2/2 143/2/2
f 150/4/2 148/4/2 147/4/2
f 150/2/2 147/2/2 149/2/2
f 151/4/2 148/4/2 150/4/2
f 152/2/2 149/2/2 143/2/2
f 153/2/2 149/2/2 152/2/2
f 156/2/2 152/2/2 143/2/2
f 157/2/2 152/2/2 156/2/2
f 158/5/2 154/5/2 153/5/2
f 159/3/2 156/3/2 155/3/2
f 160/3/2 156/3/2 159/3/2
f 161/5/2 158/5/2 157/5/2
f 163/5/2 161/5/2 160/5/2
f 164/5/2 158/5/2 161/5/2
f 164/5/2 161/5/2 163/5/2
f 165/3/2 163/3/2 162/3/2
f 166/5/2 158/5/2 164/5/2
f 167/5/2 154/5/2 158/5/2
f 167/5/2 158/5/2 166/5/2
f 168/5/2 154/5/2 167/5/2
f 169/3/2 166/3/2 165/3/2
f 170/4/2 168/4/2 167/4/2
f 171/4/2 168/4/2 170/4/2
f 172/3/2 165/3/2 162/3/2
f 172/3/2 169/3/2 165/3/2
f 172/3/2 170/3/2 169/3/2
f 173/3/2 170/3/2 172/3/2
f 177/4/2 175/4/2 174/4/2
f 178/4/2 175/4/2 177/4/2
f 180/4/2 177/4/2 176/4/2
f 181/4/2 177/4/2 180/4/2
f 183/4/2 180/4/2 179/4/2
f 184/4/2 180/4/2 183/4/2
f 185/4/2 183/4/2 182/4/2
f 186/4/2 183/4/2 185/4/2
f 188/4/2 187/4/2 186/4/2
f 189/4/2 187/4/2 188/4/2
f 191/4/2 190/4/2 189/4/2
f 192/4/2 190/4/2 191/4/2
f 193/3/3 194/3/3 196/3/3
f 196/3/3 194/3/3 197/3/3
f 195/2/3 196/2/3 198/2/3
f 196/2/3 197/2/3 198/2/3
f 198/2/3 197/2/3 199/2/3
f 199/2/3 197/2/3 200/2/3
f 200/2/3 197/2/3 201/2/3
f 199/2/3 200/2/3 202/2/3
f 202/2/3 200/2/3 203/2/3
f 204/2/3 205/2/3 207/2/3
f 207/2/3 205/2/3 208/2/3
f 206/2/3 207/2/3 211/2/3
f 209/3/3 210/3/3 214/3/3
f 211/3/3 212/3/3 215/3/3
f 213/3/3 214/3/3 216/3/3
f 206/2/3 211/2/3 217/2/3
f 211/3/3 215/3/3 218/3/3
f 217/2/3 211/2/3 218/2/3
f 215/3/3 216/3/3 218/3/3
f 218/3/3 216/3/3 219/3/3
f 219/3/3 216/3/3 220/3/3
f 216/3/3 214/3/3 221/3/3
f 220/3/3 216/3/3 221/3/3
f 214/3/3 210/3/3 222/3/3
f 221/3/3 214/3/3 222/3/3
f 220/4/3 221/4/3 223/4/3
f 223/4/3 221/4/3 224/4/3
f 225/2/3 226/2/3 230/2/3
f 230/2/3 226/2/3 231/2/3
f 227/3/3 228/3/3 232/3/3
f 232/3/3 228/3/3 233/3/3
f 229/2/3 230/2/3 235/2/3
f 234/2/3 235/2/3 236/2/3
f 235/2/3 230/2/3 237/2/3
f 236/2/3 235/2/3 237/2/3
f 237/2/3 230/2/3 238/2/3
f 238/2/3 230/2/3 239/2/3
f 239/2/3 240/2/3 241/2/3
f 241/2/3 240/2/3 242/2/3
f 242/4/3 243/4/3 246/4/3
f 246/4/3 243/4/3 247/4/3
f 244/4/3 245/4/3 248/4/3
f 248/4/3 245/4/3 249/4/3
f 250/2/3 251/2/3 255/2/3
f 255/2/3 251/2/3 256/2/3
f 253/2/3 254/2/3 257/2/3
f 257/2/3 254/2/3 258/2/3
f 253/2/3 257/2/3 259/2/3
f 252/1/3 253/1/3 261/1/3
f 259/2/3 260/2/3 262/2/3
f 261/1/3 253/1/3 262/1/3
f 253/2/3 259/2/3 262/2/3
f 262/2/3 260/2/3 263/2/3
f 264/2/3 265/2/3 266/2/3
f 266/2/3 265/2/3 267/2/3
f 268/4/3 269/4/3 272/4/3
f 272/4/3 269/4/3 273/4/3
f 270/4/3 271/4/3 274/4/3
f 274/4/3 271/4/3 275/4/3
f 276/4/3 277/4/3 278/4/3
f 278/4/3 277/4/3 279/4/3
f 280/4/3 281/4/3 282/4/3
f 282/4/3 281/4/3 283/4/3
f 286/4/4 285/4/4 284/4/4
f 287/4/4 285/4/4 286/4/4
f 292/4/4 289/4/4 288/4/4
f 293/4/4 289/4/4 292/4/4
f 294/4/4 291/4/4 290/4/4
f 295/4/4 291/4/4 294/4/4
f 300/2/4 297/2/4 296/2/4
f 301/2/4 297/2/4 300/2/4
f 302/3/4 299/3/4 298/3/4
f 303/3/4 299/3/4 302/3/4
f 305/3/4 304/3/4 303/3/4
f 306/3/4 304/3/4 305/3/4
f 311/2/4 308/2/4 307/2/4
f 312/2/4 308/2/4 311/2/4
f 316/3/4 310/3/4 309/3/4
f 317/3/4 310/3/4 316/3/4
f 318/4/4 314/4/4 313/4/4
f 319/4/4 314/4/4 318/4/4
f 320/4/4 316/4/4 315/4/4
f 321/4/4 316/4/4 320/4/4
f 326/4/4 323/4/4 322/4/4
f 327/4/4 323/4/4 326/4/4
f 331/2/4 325/2/4 324/2/4
f 332/2/4 325/2/4 331/2/4
f 333/4/4 328/4/4 327/4/4
f 334/4/4 328/4/4 333/4/4
f 335/4/4 328/4/4 334/4/4
f 337/2/4 330/2/4 329/2/4
f 338/2/4 330/2/4 337/2/4
f 339/5/4 335/5/4 334/5/4
f 340/4/4 336/4/4 335/4/4
f 340/5/4 335/5/4 339/5/4
f 341/4/4 336/4/4 340/4/4
f 347/5/4 341/5/4 340/5/4
f 348/1/4 344/1/4 343/1/4
f 349/2/4 345/2/4 344/2/4
f 349/1/4 344/1/4 348/1/4
f 350/2/4 345/2/4 349/2/4
f 354/5/4 347/5/4 346/5/4
f 355/5/4 341/5/4 347/5/4
f 355/5/4 347/5/4 354/5/4
f 356/4/4 342/4/4 341/4/4
f 356/5/4 341/5/4 355/5/4
f 357/4/4 342/4/4 356/4/4
f 358/2/4 352/2/4 351/2/4
f 359/2/4 352/2/4 358/2/4
f 360/5/4 355/5/4 354/5/4
f 360/5/4 354/5/4 353/5/4
f 361/5/4 355/5/4 360/5/4
f 362/4/4 356/4/4 355/4/4
f 362/5/4 355/5/4 361/5/4
f 363/4/4 356/4/4 362/4/4
f 364/4/4 361/4/4 360/4/4
f 365/4/4 361/4/4 364/4/4
f 373/4/4 367/4/4 366/4/4
f 374/5/4 368/5/4 367/5/4
f 374/4/4 367/4/4 373/4/4
f 375/5/4 368/5/4 374/5/4
f 377/1/4 370/1/4 369/1/4
f 378/2/4 372/2/4 371/2/4
f 379/5/4 376/5/4 375/5/4
f 379/5/4 374/5/4 373/5/4
f 379/5/4 375/5/4 374/5/4
f 381/1/4 377/1/4 369/1/4
f 382/2/4 378/2/4 377/2/4
f 382/1/4 377/1/4 381/1/4
f 383/2/4 372/2/4 378/2/4
f 383/2/4 378/2/4 382/2/4
f 384/5/4 380/5/4 379/5/4
f 384/5/4 379/5/4 373/5/4
f 385/5/4 380/5/4 384/5/4
f 386/2/4 372/2/4 383/2/4
f 387/2/4 372/2/4 386/2/4
f 388/5/4 384/5/4 373/5/4
f 389/5/4 384/5/4 388/5/4
f 390/5/4 384/5/4 389/5/4
f 391/4/4 389/4/4 388/4/4
f 392/4/4 389/4/4 391/4/4
f 395/4/4 394/4/4 393/4/4
f 396/4/4 394/4/4 395/4/4
f 397/1/5 398/1/5 399/1/5
f 399/1/5 398/1/5 400/1/5
f 397/1/5 399/1/5 401/1/5
f 401/1/5 399/1/5 402/1/5
f 403/2/5 404/2/5 405/2/5
f 405/2/5 404/2/5 406/2/5
f 407/2/5 408/2/5 409/2/5
f 409/2/5 408/2/5 410/2/5
f 411/2/5 412/2/5 415/2/5
f 415/2/5 412/2/5 416/2/5
f 413/2/5 414/2/5 417/2/5
f 417/2/5 414/2/5 418/2/5
f 419/2/5 420/2/5 421/2/5
f 421/2/5 420/2/5 422/2/5
f 423/2/5 424/2/5 427/2/5
f 427/2/5 424/2/5 428/2/5
f 425/2/5 426/2/5 429/2/5
f 429/2/5 426/2/5 430/2/5
f 431/2/5 432/2/5 434/2/5
f 434/2/5 432/2/5 435/2/5
f 433/2/5 434/2/5 437/2/5
f 437/2/5 434/2/5 438/2/5
f 435/2/5 436/2/5 439/2/5
f 439/2/5 436/2/5 440/2/5
f 441/2/5 442/2/5 445/2/5
f 445/2/5 442/2/5 446/2/5
f 443/2/5 444/2/5 447/2/5
f 447/2/5 444/2/5 448/2/5
f 449/4/5 450/4/5 451/4/5
f 451/4/5 450/4/5 452/4/5
f 453/4/5 454/4/5 457/4/5
f 457/4/5 454/4/5 458/4/5
f 455/4/5 456/4/5 459/4/5
f 459/4/5 456/4/5 460/4/5
f 461/4/5 462/4/5 465/4/5
f 465/4/5 462/4/5 466/4/5
f 463/4/5 464/4/5 467/4/5
f 467/4/5 464/4/5 468/4/5
f 469/4/5 470/4/5 471/4/5
f 471/4/5 470/4/5 472/4/5
f 473/2/5 474/2/5 476/2/5
f 476/2/5 474/2/5 477/2/5
f 475/2/5 476/2/5 480/2/5
f 480/2/5 476/2/5 481/2/5
f 478/3/5 479/3/5 482/3/5
f 482/3/5 479/3/5 483/3/5
f 483/4/5 484/4/5 485/4/5
f 485/4/5 484/4/5 486/4/5
f 487/2/5 488/2/5 489/2/5
f 489/2/5 488/2/5 490/2/5
f 491/4/5 492/4/5 493/4/5
f 493/4/5 492/4/5 494/4/5
f 495/3/5 496/3/5 497/3/5
f 497/3/5 496/3/5 498/3/5
f 499/4/5 500/4/5 501/4/5
f 501/4/5 500/4/5 502/4/5
f 503/4/5 504/4/5 505/4/5
f 505/4/5 504/4/5 506/4/5
f 509/1/6 508/1/6 507/1/6
f 510/1/6 508/1/6 509/1/6
f 513/4/6 512/4/6 511/4/6
f 514/4/6 512/4/6 513/4/6
f 517/4/6 516/4/6 515/4/6
f 518/4/6 516/4/6 517/4/6
f 523/4/6 520/4/6 519/4/6
f 524/4/6 520/4/6 523/4/6
f 525/5/6 522/5/6 521/5/6
f 526/5/6 522/5/6 525/5/6
f 529/4/6 528/4/6 527/4/6
f 530/4/6 528/4/6 529/4/6
f 533/4/6 532/4/6 531/4/6
f 534/4/6 532/4/6 533/4/6
f 537/4/6 536/4/6 535/4/6
f 538/4/6 536/4/6 537/4/6
f 540/5/6 539/5/6 538/5/6
f 541/5/6 539/5/6 540/5/6
f 544/2/6 543/2/6 542/2/6
f 545/2/6 543/2/6 544/2/6
f 548/4/6 547/4/6 546/4/6
f 549/4/6 547/4/6 548/4/6
f 552/5/6 551/5/6 550/5/6
f 553/5/6 551/5/6 552/5/6
f 557/3/6 555/3/6 554/3/6
f 557/2/6 556/2/6 555/2/6
f 558/2/6 556/2/6 557/2/6
f 559/3/6 557/3/6 554/3/6
f 560/3/6 557/3/6 559/3/6
f 563/4/6 562/4/6 561/4/6
f 564/4/6 562/4/6 563/4/6
f 567/4/6 566/4/6 565/4/6
f 568/4/6 566/4/6 567/4/6
f 571/5/6 570/5/6 569/5/6
f 572/5/6 570/5/6 571/5/6
f 577/3/6 574/3/6 573/3/6
f 578/3/6 574/3/6 577/3/6
f 581/4/6 576/4/6 575/4/6
f 582/4/6 576/4/6 581/4/6
f 583/4/6 579/4/6 578/4/6
f 584/4/6 579/4/6 583/4/6
f 585/4/6 581/4/6 580/4/6
f 586/4/6 581/4/6 585/4/6
f 589/3/6 588/3/6 587/3/6
f 590/3/6 588/3/6 589/3/6
f 591/3/6 588/3/6 590/3/6
f 592/3/6 588/3/6 591/3/6
f 593/4/6 591/4/6 590/4/6
f 594/4/6 591/4/6 593/4/6
