# MagicaVoxel @ Ephtracy

# group
o 

# material
mtllib Trevor-12.mtl
usemtl palette

# normals
vn -1 0 0
vn 1 0 0
vn 0 0 -1
vn 0 0 1
vn 0 -1 0
vn 0 1 0

# texcoords
vt 0.208984 0.5
vt 0.869141 0.5
vt 0.978516 0.5
vt 0.986328 0.5

# verts
v -0.4 3.5 0.6
v -0.4 3.5 0.8
v -0.4 3.6 0.6
v -0.4 3.6 0.7
v -0.4 3.8 0.7
v -0.4 3.8 0.8
v -0.3 3.4 0.6
v -0.3 3.4 0.8
v -0.3 3.5 0.6
v -0.3 3.5 0.8
v -0.3 3.5 0.9
v -0.3 3.6 0.6
v -0.3 3.6 0.7
v -0.3 3.6 0.8
v -0.3 3.6 0.9
v -0.3 3.7 0.8
v -0.3 3.7 0.9
v -0.3 3.8 0.6
v -0.3 3.8 0.7
v -0.3 3.8 0.8
v -0.3 4.1 0.7
v -0.3 4.1 0.8
v -0.2 3 0.7
v -0.2 3 0.9
v -0.2 3.1 0.6
v -0.2 3.1 0.7
v -0.2 3.3 0.6
v -0.2 3.3 0.7
v -0.2 3.3 0.8
v -0.2 3.3 0.9
v -0.2 3.4 0.6
v -0.2 3.4 0.7
v -0.2 3.4 0.8
v -0.2 3.4 0.9
v -0.2 3.5 0.8
v -0.2 3.5 0.9
v -0.2 3.5 1
v -0.2 3.6 0.9
v -0.2 3.6 1
v -0.2 3.7 0.8
v -0.2 3.7 0.9
v -0.2 3.7 1
v -0.2 3.8 0.6
v -0.2 3.8 0.7
v -0.2 3.8 0.8
v -0.2 3.9 0.8
v -0.2 3.9 0.9
v -0.2 4.1 0.6
v -0.2 4.1 0.7
v -0.2 4.1 0.8
v -0.2 4.2 0.7
v -0.2 4.2 0.8
v -0.1 2.8 0.7
v -0.1 2.8 0.9
v -0.1 2.9 0.6
v -0.1 2.9 0.7
v -0.1 2.9 0.9
v -0.1 2.9 1
v -0.1 3 0.7
v -0.1 3 0.9
v -0.1 3.1 0.6
v -0.1 3.1 0.7
v -0.1 3.1 0.9
v -0.1 3.1 1
v -0.1 3.3 0.8
v -0.1 3.3 0.9
v -0.1 3.4 0.8
v -0.1 3.4 0.9
v -0.1 3.4 1
v -0.1 3.5 0.9
v -0.1 3.5 1
v -0.1 3.5 1.1
v -0.1 3.6 1
v -0.1 3.6 1.1
v -0.1 3.7 0.9
v -0.1 3.7 1
v -0.1 3.7 1.1
v -0.1 3.9 0.8
v -0.1 3.9 0.9
v -0.1 3.9 1
v -0.1 4 0.8
v -0.1 4 0.9
v -0.1 4.1 0.6
v -0.1 4.1 0.7
v -0.1 4.2 0.6
v -0.1 4.2 0.7
v -0.1 4.2 0.8
v -0.1 4.3 0.7
v -0.1 4.3 0.8
v 0.1 2.8 0.7
v 0.1 2.8 0.9
v 0.1 2.9 0.7
v 0.1 2.9 0.9
v 0.1 3 0.7
v 0.1 3 0.9
v 0.1 3 1
v 0.1 3.1 0.9
v 0.1 3.1 1
v 0.1 3.3 0.8
v 0.1 3.3 0.9
v 0.1 3.4 0.8
v 0.1 3.4 0.9
v 0.1 3.4 1
v 0.1 3.5 0.9
v 0.1 3.5 1
v 0.1 3.5 1.1
v 0.1 3.6 1
v 0.1 3.6 1.1
v 0.1 3.7 0.9
v 0.1 3.7 1
v 0.1 3.7 1.1
v 0.1 3.9 0.8
v 0.1 3.9 0.9
v 0.1 3.9 1
v 0.1 4 0.8
v 0.1 4 0.9
v 0.1 4.1 0.6
v 0.1 4.1 0.7
v 0.1 4.2 0.6
v 0.1 4.2 0.7
v 0.1 4.2 0.8
v 0.1 4.3 0.7
v 0.1 4.3 0.8
v 0.2 2.9 0.6
v 0.2 2.9 0.7
v 0.2 2.9 0.9
v 0.2 2.9 1
v 0.2 3 0.7
v 0.2 3 0.9
v 0.2 3 1
v 0.2 3.3 0.6
v 0.2 3.3 0.7
v 0.2 3.3 0.8
v 0.2 3.3 0.9
v 0.2 3.4 0.6
v 0.2 3.4 0.7
v 0.2 3.4 0.8
v 0.2 3.4 0.9
v 0.2 3.5 0.8
v 0.2 3.5 0.9
v 0.2 3.5 1
v 0.2 3.6 0.9
v 0.2 3.6 1
v 0.2 3.7 0.8
v 0.2 3.7 0.9
v 0.2 3.7 1
v 0.2 3.8 0.6
v 0.2 3.8 0.7
v 0.2 3.8 0.8
v 0.2 3.9 0.8
v 0.2 3.9 0.9
v 0.2 4.1 0.6
v 0.2 4.1 0.7
v 0.2 4.1 0.8
v 0.2 4.2 0.7
v 0.2 4.2 0.8
v 0.3 3.4 0.6
v 0.3 3.4 0.8
v 0.3 3.5 0.6
v 0.3 3.5 0.8
v 0.3 3.5 0.9
v 0.3 3.6 0.6
v 0.3 3.6 0.7
v 0.3 3.6 0.8
v 0.3 3.6 0.9
v 0.3 3.7 0.8
v 0.3 3.7 0.9
v 0.3 3.8 0.6
v 0.3 3.8 0.7
v 0.3 3.8 0.8
v 0.3 4.1 0.7
v 0.3 4.1 0.8
v 0.4 3.5 0.6
v 0.4 3.5 0.8
v 0.4 3.6 0.6
v 0.4 3.6 0.7
v 0.4 3.8 0.7
v 0.4 3.8 0.8
v -0.4 3.5 0.6
v -0.4 3.6 0.6
v -0.3 3.4 0.6
v -0.3 3.5 0.6
v -0.3 3.6 0.6
v -0.3 3.8 0.6
v -0.2 3.1 0.6
v -0.2 3.3 0.6
v -0.2 3.4 0.6
v -0.2 3.5 0.6
v -0.2 3.8 0.6
v -0.2 4.1 0.6
v -0.1 2.9 0.6
v -0.1 3.1 0.6
v -0.1 4.1 0.6
v -0.1 4.2 0.6
v 0.1 4.1 0.6
v 0.1 4.2 0.6
v 0.2 2.9 0.6
v 0.2 3.3 0.6
v 0.2 3.4 0.6
v 0.2 3.5 0.6
v 0.2 3.8 0.6
v 0.2 4.1 0.6
v 0.3 3.4 0.6
v 0.3 3.5 0.6
v 0.3 3.6 0.6
v 0.3 3.8 0.6
v 0.4 3.5 0.6
v 0.4 3.6 0.6
v -0.4 3.6 0.7
v -0.4 3.8 0.7
v -0.3 3.6 0.7
v -0.3 3.8 0.7
v -0.3 4.1 0.7
v -0.2 3 0.7
v -0.2 3.1 0.7
v -0.2 3.8 0.7
v -0.2 4.1 0.7
v -0.2 4.2 0.7
v -0.1 2.8 0.7
v -0.1 2.9 0.7
v -0.1 3 0.7
v -0.1 3.1 0.7
v -0.1 4.1 0.7
v -0.1 4.2 0.7
v -0.1 4.3 0.7
v 0.1 2.8 0.7
v 0.1 2.9 0.7
v 0.1 4.1 0.7
v 0.1 4.2 0.7
v 0.1 4.3 0.7
v 0.2 3.8 0.7
v 0.2 4.1 0.7
v 0.2 4.2 0.7
v 0.3 3.6 0.7
v 0.3 3.8 0.7
v 0.3 4.1 0.7
v 0.4 3.6 0.7
v 0.4 3.8 0.7
v 0.1 2.9 0.9
v 0.1 3 0.9
v 0.2 2.9 0.9
v 0.2 3 0.9
v 0.1 2.9 0.7
v 0.1 3 0.7
v 0.2 2.9 0.7
v 0.2 3 0.7
v -0.4 3.5 0.8
v -0.4 3.8 0.8
v -0.3 3.4 0.8
v -0.3 3.5 0.8
v -0.3 3.6 0.8
v -0.3 3.7 0.8
v -0.3 3.8 0.8
v -0.3 4.1 0.8
v -0.2 3.3 0.8
v -0.2 3.4 0.8
v -0.2 3.5 0.8
v -0.2 3.7 0.8
v -0.2 3.8 0.8
v -0.2 3.9 0.8
v -0.2 4.1 0.8
v -0.2 4.2 0.8
v -0.1 3.3 0.8
v -0.1 3.4 0.8
v -0.1 3.9 0.8
v -0.1 4 0.8
v -0.1 4.1 0.8
v -0.1 4.2 0.8
v -0.1 4.3 0.8
v 0.1 3.3 0.8
v 0.1 3.4 0.8
v 0.1 3.9 0.8
v 0.1 4 0.8
v 0.1 4.1 0.8
v 0.1 4.2 0.8
v 0.1 4.3 0.8
v 0.2 3.3 0.8
v 0.2 3.4 0.8
v 0.2 3.5 0.8
v 0.2 3.7 0.8
v 0.2 3.8 0.8
v 0.2 3.9 0.8
v 0.2 4.1 0.8
v 0.2 4.2 0.8
v 0.3 3.4 0.8
v 0.3 3.5 0.8
v 0.3 3.6 0.8
v 0.3 3.7 0.8
v 0.3 3.8 0.8
v 0.3 4.1 0.8
v 0.4 3.5 0.8
v 0.4 3.8 0.8
v -0.3 3.5 0.9
v -0.3 3.6 0.9
v -0.3 3.7 0.9
v -0.2 3 0.9
v -0.2 3.3 0.9
v -0.2 3.4 0.9
v -0.2 3.5 0.9
v -0.2 3.6 0.9
v -0.2 3.7 0.9
v -0.2 3.9 0.9
v -0.1 2.8 0.9
v -0.1 2.9 0.9
v -0.1 3 0.9
v -0.1 3.1 0.9
v -0.1 3.3 0.9
v -0.1 3.4 0.9
v -0.1 3.5 0.9
v -0.1 3.7 0.9
v -0.1 3.9 0.9
v -0.1 4 0.9
v 0.1 2.8 0.9
v 0.1 2.9 0.9
v 0.1 3 0.9
v 0.1 3.1 0.9
v 0.1 3.3 0.9
v 0.1 3.4 0.9
v 0.1 3.5 0.9
v 0.1 3.7 0.9
v 0.1 3.9 0.9
v 0.1 4 0.9
v 0.2 3 0.9
v 0.2 3.3 0.9
v 0.2 3.4 0.9
v 0.2 3.5 0.9
v 0.2 3.6 0.9
v 0.2 3.7 0.9
v 0.2 3.9 0.9
v 0.3 3.5 0.9
v 0.3 3.6 0.9
v 0.3 3.7 0.9
v -0.2 3.5 1
v -0.2 3.6 1
v -0.2 3.7 1
v -0.1 2.9 1
v -0.1 3.1 1
v -0.1 3.4 1
v -0.1 3.5 1
v -0.1 3.6 1
v -0.1 3.7 1
v -0.1 3.9 1
v 0.1 3 1
v 0.1 3.1 1
v 0.1 3.4 1
v 0.1 3.5 1
v 0.1 3.6 1
v 0.1 3.7 1
v 0.1 3.9 1
v 0.2 2.9 1
v 0.2 3 1
v 0.2 3.5 1
v 0.2 3.6 1
v 0.2 3.7 1
v -0.1 3.5 1.1
v -0.1 3.6 1.1
v -0.1 3.7 1.1
v 0.1 3.5 1.1
v 0.1 3.6 1.1
v 0.1 3.7 1.1
v -0.1 2.8 0.7
v 0.1 2.8 0.7
v -0.1 2.8 0.9
v 0.1 2.8 0.9
v -0.1 2.9 0.6
v 0.2 2.9 0.6
v -0.1 2.9 0.7
v 0.1 2.9 0.7
v 0.2 2.9 0.7
v -0.1 2.9 0.9
v 0.1 2.9 0.9
v 0.2 2.9 0.9
v -0.1 2.9 1
v 0.2 2.9 1
v -0.2 3 0.7
v -0.1 3 0.7
v 0.1 3 0.7
v 0.2 3 0.7
v -0.2 3 0.9
v -0.1 3 0.9
v 0.1 3 0.9
v 0.2 3 0.9
v -0.2 3.1 0.6
v -0.1 3.1 0.6
v -0.2 3.1 0.7
v -0.1 3.1 0.7
v -0.3 3.4 0.6
v -0.2 3.4 0.6
v 0.2 3.4 0.6
v 0.3 3.4 0.6
v -0.2 3.4 0.7
v 0.2 3.4 0.7
v -0.3 3.4 0.8
v -0.2 3.4 0.8
v -0.1 3.4 0.8
v 0.1 3.4 0.8
v 0.2 3.4 0.8
v 0.3 3.4 0.8
v -0.2 3.4 0.9
v -0.1 3.4 0.9
v 0.1 3.4 0.9
v 0.2 3.4 0.9
v -0.1 3.4 1
v 0.1 3.4 1
v -0.4 3.5 0.6
v -0.3 3.5 0.6
v 0.3 3.5 0.6
v 0.4 3.5 0.6
v -0.4 3.5 0.8
v -0.3 3.5 0.8
v -0.2 3.5 0.8
v 0.2 3.5 0.8
v 0.3 3.5 0.8
v 0.4 3.5 0.8
v -0.3 3.5 0.9
v -0.2 3.5 0.9
v -0.1 3.5 0.9
v 0.1 3.5 0.9
v 0.2 3.5 0.9
v 0.3 3.5 0.9
v -0.2 3.5 1
v -0.1 3.5 1
v 0.1 3.5 1
v 0.2 3.5 1
v -0.1 3.5 1.1
v 0.1 3.5 1.1
v 0.1 3 0.9
v 0.2 3 0.9
v 0.1 3 1
v 0.2 3 1
v -0.1 3.1 0.9
v 0.1 3.1 0.9
v -0.1 3.1 1
v 0.1 3.1 1
v -0.2 3.3 0.8
v -0.1 3.3 0.8
v 0.1 3.3 0.8
v 0.2 3.3 0.8
v -0.2 3.3 0.9
v -0.1 3.3 0.9
v 0.1 3.3 0.9
v 0.2 3.3 0.9
v -0.4 3.6 0.6
v -0.3 3.6 0.6
v 0.3 3.6 0.6
v 0.4 3.6 0.6
v -0.4 3.6 0.7
v -0.3 3.6 0.7
v 0.3 3.6 0.7
v 0.4 3.6 0.7
v -0.3 3.7 0.8
v -0.2 3.7 0.8
v 0.2 3.7 0.8
v 0.3 3.7 0.8
v -0.3 3.7 0.9
v -0.2 3.7 0.9
v -0.1 3.7 0.9
v 0.1 3.7 0.9
v 0.2 3.7 0.9
v 0.3 3.7 0.9
v -0.2 3.7 1
v -0.1 3.7 1
v 0.1 3.7 1
v 0.2 3.7 1
v -0.1 3.7 1.1
v 0.1 3.7 1.1
v -0.3 3.8 0.6
v -0.2 3.8 0.6
v 0.2 3.8 0.6
v 0.3 3.8 0.6
v -0.4 3.8 0.7
v -0.3 3.8 0.7
v -0.2 3.8 0.7
v 0.2 3.8 0.7
v 0.3 3.8 0.7
v 0.4 3.8 0.7
v -0.4 3.8 0.8
v -0.3 3.8 0.8
v 0.3 3.8 0.8
v 0.4 3.8 0.8
v -0.2 3.9 0.8
v -0.1 3.9 0.8
v 0.1 3.9 0.8
v 0.2 3.9 0.8
v -0.2 3.9 0.9
v -0.1 3.9 0.9
v 0.1 3.9 0.9
v 0.2 3.9 0.9
v -0.1 3.9 1
v 0.1 3.9 1
v -0.1 4 0.8
v 0.1 4 0.8
v -0.1 4 0.9
v 0.1 4 0.9
v -0.2 4.1 0.6
v -0.1 4.1 0.6
v 0.1 4.1 0.6
v 0.2 4.1 0.6
v -0.3 4.1 0.7
v -0.2 4.1 0.7
v -0.1 4.1 0.7
v 0.1 4.1 0.7
v 0.2 4.1 0.7
v 0.3 4.1 0.7
v -0.3 4.1 0.8
v -0.2 4.1 0.8
v 0.2 4.1 0.8
v 0.3 4.1 0.8
v -0.1 4.2 0.6
v 0.1 4.2 0.6
v -0.2 4.2 0.7
v -0.1 4.2 0.7
v 0.1 4.2 0.7
v 0.2 4.2 0.7
v -0.2 4.2 0.8
v -0.1 4.2 0.8
v 0.1 4.2 0.8
v 0.2 4.2 0.8
v -0.1 4.3 0.7
v 0.1 4.3 0.7
v -0.1 4.3 0.8
v 0.1 4.3 0.8

# faces
f 1/3/1 2/3/1 3/3/1
f 3/3/1 2/3/1 4/3/1
f 4/3/1 2/3/1 5/3/1
f 5/3/1 2/3/1 6/3/1
f 7/3/1 8/3/1 9/3/1
f 9/3/1 8/3/1 10/3/1
f 10/3/1 11/3/1 14/3/1
f 14/3/1 11/3/1 15/3/1
f 14/4/1 15/4/1 16/4/1
f 16/4/1 15/4/1 17/4/1
f 12/4/1 13/4/1 18/4/1
f 18/4/1 13/4/1 19/4/1
f 19/3/1 20/3/1 21/3/1
f 21/3/1 20/3/1 22/3/1
f 23/1/1 24/1/1 26/1/1
f 25/1/1 26/1/1 27/1/1
f 26/1/1 24/1/1 28/1/1
f 27/1/1 26/1/1 28/1/1
f 28/1/1 24/1/1 29/1/1
f 29/1/1 24/1/1 30/1/1
f 27/2/1 28/2/1 31/2/1
f 28/1/1 29/1/1 32/1/1
f 31/2/1 28/2/1 32/2/1
f 32/1/1 29/1/1 33/1/1
f 33/3/1 34/3/1 35/3/1
f 35/3/1 34/3/1 36/3/1
f 36/3/1 37/3/1 38/3/1
f 38/3/1 37/3/1 39/3/1
f 38/4/1 39/4/1 41/4/1
f 41/4/1 39/4/1 42/4/1
f 40/4/1 41/4/1 45/4/1
f 45/4/1 41/4/1 46/4/1
f 46/4/1 41/4/1 47/4/1
f 43/4/1 44/4/1 48/4/1
f 48/4/1 44/4/1 49/4/1
f 49/3/1 50/3/1 51/3/1
f 51/3/1 50/3/1 52/3/1
f 53/1/1 54/1/1 56/1/1
f 56/1/1 54/1/1 57/1/1
f 55/1/1 56/1/1 59/1/1
f 57/1/1 58/1/1 59/1/1
f 56/1/1 57/1/1 59/1/1
f 59/1/1 58/1/1 60/1/1
f 55/1/1 59/1/1 61/1/1
f 61/1/1 59/1/1 62/1/1
f 60/1/1 58/1/1 63/1/1
f 63/1/1 58/1/1 64/1/1
f 65/1/1 66/1/1 67/1/1
f 67/1/1 66/1/1 68/1/1
f 68/3/1 69/3/1 70/3/1
f 70/3/1 69/3/1 71/3/1
f 71/3/1 72/3/1 73/3/1
f 73/3/1 72/3/1 74/3/1
f 73/4/1 74/4/1 76/4/1
f 76/4/1 74/4/1 77/4/1
f 75/4/1 76/4/1 79/4/1
f 79/4/1 76/4/1 80/4/1
f 78/4/1 79/4/1 81/4/1
f 81/4/1 79/4/1 82/4/1
f 83/4/1 84/4/1 85/4/1
f 85/4/1 84/4/1 86/4/1
f 86/3/1 87/3/1 88/3/1
f 88/3/1 87/3/1 89/3/1
f 92/1/2 91/1/2 90/1/2
f 93/1/2 91/1/2 92/1/2
f 94/1/2 93/1/2 92/1/2
f 95/1/2 93/1/2 94/1/2
f 97/1/2 96/1/2 95/1/2
f 98/1/2 96/1/2 97/1/2
f 101/1/2 100/1/2 99/1/2
f 102/1/2 100/1/2 101/1/2
f 104/3/2 103/3/2 102/3/2
f 105/3/2 103/3/2 104/3/2
f 107/3/2 106/3/2 105/3/2
f 108/3/2 106/3/2 107/3/2
f 110/4/2 108/4/2 107/4/2
f 111/4/2 108/4/2 110/4/2
f 113/4/2 110/4/2 109/4/2
f 114/4/2 110/4/2 113/4/2
f 115/4/2 113/4/2 112/4/2
f 116/4/2 113/4/2 115/4/2
f 119/4/2 118/4/2 117/4/2
f 120/4/2 118/4/2 119/4/2
f 122/3/2 121/3/2 120/3/2
f 123/3/2 121/3/2 122/3/2
f 128/1/2 125/1/2 124/1/2
f 129/1/2 127/1/2 126/1/2
f 130/1/2 127/1/2 129/1/2
f 131/1/2 128/1/2 124/1/2
f 131/1/2 129/1/2 128/1/2
f 132/1/2 129/1/2 131/1/2
f 133/1/2 129/1/2 132/1/2
f 134/1/2 129/1/2 133/1/2
f 135/2/2 132/2/2 131/2/2
f 136/1/2 133/1/2 132/1/2
f 136/2/2 132/2/2 135/2/2
f 137/1/2 133/1/2 136/1/2
f 139/3/2 138/3/2 137/3/2
f 140/3/2 138/3/2 139/3/2
f 142/3/2 141/3/2 140/3/2
f 143/3/2 141/3/2 142/3/2
f 145/4/2 143/4/2 142/4/2
f 146/4/2 143/4/2 145/4/2
f 149/4/2 145/4/2 144/4/2
f 150/4/2 145/4/2 149/4/2
f 151/4/2 145/4/2 150/4/2
f 152/4/2 148/4/2 147/4/2
f 153/4/2 148/4/2 152/4/2
f 155/3/2 154/3/2 153/3/2
f 156/3/2 154/3/2 155/3/2
f 159/3/2 158/3/2 157/3/2
f 160/3/2 158/3/2 159/3/2
f 164/3/2 161/3/2 160/3/2
f 165/3/2 161/3/2 164/3/2
f 166/4/2 165/4/2 164/4/2
f 167/4/2 165/4/2 166/4/2
f 168/4/2 163/4/2 162/4/2
f 169/4/2 163/4/2 168/4/2
f 171/3/2 170/3/2 169/3/2
f 172/3/2 170/3/2 171/3/2
f 175/3/2 174/3/2 173/3/2
f 176/3/2 174/3/2 175/3/2
f 177/3/2 174/3/2 176/3/2
f 178/3/2 174/3/2 177/3/2
f 179/3/3 180/3/3 182/3/3
f 182/3/3 180/3/3 183/3/3
f 181/3/3 182/3/3 187/3/3
f 182/3/3 183/3/3 187/3/3
f 187/3/3 183/3/3 188/3/3
f 183/4/3 184/4/3 189/4/3
f 185/1/3 186/1/3 192/1/3
f 189/4/3 190/4/3 193/4/3
f 189/4/3 193/4/3 195/4/3
f 193/4/3 194/4/3 195/4/3
f 195/4/3 194/4/3 196/4/3
f 191/1/3 192/1/3 197/1/3
f 186/2/3 187/2/3 198/2/3
f 197/1/3 192/1/3 198/1/3
f 187/2/3 188/2/3 198/2/3
f 192/1/3 186/1/3 198/1/3
f 198/2/3 188/2/3 199/2/3
f 188/3/3 183/3/3 200/3/3
f 199/2/3 188/2/3 200/2/3
f 189/4/3 195/4/3 201/4/3
f 183/4/3 189/4/3 201/4/3
f 201/4/3 195/4/3 202/4/3
f 199/3/3 200/3/3 203/3/3
f 200/3/3 183/3/3 204/3/3
f 203/3/3 200/3/3 204/3/3
f 183/4/3 201/4/3 205/4/3
f 204/3/3 183/3/3 205/3/3
f 205/4/3 201/4/3 206/4/3
f 204/3/3 205/3/3 207/3/3
f 207/3/3 205/3/3 208/3/3
f 209/3/3 210/3/3 211/3/3
f 211/3/3 210/3/3 212/3/3
f 212/3/3 213/3/3 216/3/3
f 216/3/3 213/3/3 217/3/3
f 214/1/3 215/1/3 221/1/3
f 221/1/3 215/1/3 222/1/3
f 217/3/3 218/3/3 223/3/3
f 223/3/3 218/3/3 224/3/3
f 219/1/3 220/1/3 226/1/3
f 226/1/3 220/1/3 227/1/3
f 224/3/3 225/3/3 229/3/3
f 229/3/3 225/3/3 230/3/3
f 228/3/3 229/3/3 232/3/3
f 232/3/3 229/3/3 233/3/3
f 231/3/3 232/3/3 235/3/3
f 235/3/3 232/3/3 236/3/3
f 234/3/3 235/3/3 237/3/3
f 237/3/3 235/3/3 238/3/3
f 239/1/3 240/1/3 241/1/3
f 241/1/3 240/1/3 242/1/3
f 245/1/4 244/1/4 243/1/4
f 246/1/4 244/1/4 245/1/4
f 250/3/4 248/3/4 247/3/4
f 251/3/4 248/3/4 250/3/4
f 252/3/4 248/3/4 251/3/4
f 253/3/4 248/3/4 252/3/4
f 256/3/4 250/3/4 249/3/4
f 257/3/4 250/3/4 256/3/4
f 258/4/4 253/4/4 252/4/4
f 259/3/4 254/3/4 253/3/4
f 259/4/4 253/4/4 258/4/4
f 260/3/4 254/3/4 259/3/4
f 261/3/4 254/3/4 260/3/4
f 263/1/4 256/1/4 255/1/4
f 264/1/4 256/1/4 263/1/4
f 265/4/4 261/4/4 260/4/4
f 266/4/4 261/4/4 265/4/4
f 267/3/4 262/3/4 261/3/4
f 267/4/4 261/4/4 266/4/4
f 268/3/4 262/3/4 267/3/4
f 273/4/4 268/4/4 267/4/4
f 273/4/4 267/4/4 266/4/4
f 274/4/4 268/4/4 273/4/4
f 275/3/4 269/3/4 268/3/4
f 275/4/4 268/4/4 274/4/4
f 276/3/4 269/3/4 275/3/4
f 277/1/4 271/1/4 270/1/4
f 278/1/4 271/1/4 277/1/4
f 282/4/4 274/4/4 273/4/4
f 282/4/4 273/4/4 272/4/4
f 283/3/4 275/3/4 274/3/4
f 283/4/4 274/4/4 282/4/4
f 284/3/4 275/3/4 283/3/4
f 285/3/4 279/3/4 278/3/4
f 286/3/4 279/3/4 285/3/4
f 288/4/4 281/4/4 280/4/4
f 289/3/4 282/3/4 281/3/4
f 289/3/4 283/3/4 282/3/4
f 289/4/4 281/4/4 288/4/4
f 290/3/4 283/3/4 289/3/4
f 291/3/4 287/3/4 286/3/4
f 291/3/4 288/3/4 287/3/4
f 291/3/4 289/3/4 288/3/4
f 292/3/4 289/3/4 291/3/4
f 299/3/4 294/3/4 293/3/4
f 300/4/4 295/4/4 294/4/4
f 300/3/4 294/3/4 299/3/4
f 301/4/4 295/4/4 300/4/4
f 305/1/4 297/1/4 296/1/4
f 306/1/4 297/1/4 305/1/4
f 307/1/4 297/1/4 306/1/4
f 308/3/4 299/3/4 298/3/4
f 309/3/4 299/3/4 308/3/4
f 310/4/4 302/4/4 301/4/4
f 311/4/4 302/4/4 310/4/4
f 313/1/4 304/1/4 303/1/4
f 314/1/4 304/1/4 313/1/4
f 316/1/4 307/1/4 306/1/4
f 316/1/4 308/1/4 307/1/4
f 317/1/4 308/1/4 316/1/4
f 318/1/4 308/1/4 317/1/4
f 321/4/4 312/4/4 311/4/4
f 322/4/4 312/4/4 321/4/4
f 323/1/4 316/1/4 315/1/4
f 323/1/4 317/1/4 316/1/4
f 324/1/4 317/1/4 323/1/4
f 325/3/4 319/3/4 318/3/4
f 326/3/4 319/3/4 325/3/4
f 328/4/4 321/4/4 320/4/4
f 329/4/4 321/4/4 328/4/4
f 330/3/4 327/3/4 326/3/4
f 331/4/4 328/4/4 327/4/4
f 331/3/4 327/3/4 330/3/4
f 332/4/4 328/4/4 331/4/4
f 339/3/4 334/3/4 333/3/4
f 340/4/4 335/4/4 334/4/4
f 340/3/4 334/3/4 339/3/4
f 341/4/4 335/4/4 340/4/4
f 343/1/4 337/1/4 336/1/4
f 344/1/4 337/1/4 343/1/4
f 345/3/4 339/3/4 338/3/4
f 346/3/4 339/3/4 345/3/4
f 348/4/4 342/4/4 341/4/4
f 349/4/4 342/4/4 348/4/4
f 350/1/4 343/1/4 336/1/4
f 351/1/4 343/1/4 350/1/4
f 352/3/4 347/3/4 346/3/4
f 353/4/4 348/4/4 347/4/4
f 353/3/4 347/3/4 352/3/4
f 354/4/4 348/4/4 353/4/4
f 358/3/4 356/3/4 355/3/4
f 359/4/4 357/4/4 356/4/4
f 359/3/4 356/3/4 358/3/4
f 360/4/4 357/4/4 359/4/4
f 361/1/5 362/1/5 363/1/5
f 363/1/5 362/1/5 364/1/5
f 365/1/5 366/1/5 367/1/5
f 367/1/5 366/1/5 368/1/5
f 368/1/5 366/1/5 369/1/5
f 370/1/5 371/1/5 373/1/5
f 371/1/5 372/1/5 373/1/5
f 373/1/5 372/1/5 374/1/5
f 375/1/5 376/1/5 379/1/5
f 379/1/5 376/1/5 380/1/5
f 377/1/5 378/1/5 381/1/5
f 381/1/5 378/1/5 382/1/5
f 383/1/5 384/1/5 385/1/5
f 385/1/5 384/1/5 386/1/5
f 387/3/5 388/3/5 391/3/5
f 389/3/5 390/3/5 392/3/5
f 387/3/5 391/3/5 393/3/5
f 393/3/5 391/3/5 394/3/5
f 392/3/5 390/3/5 397/3/5
f 397/3/5 390/3/5 398/3/5
f 394/3/5 395/3/5 399/3/5
f 399/3/5 395/3/5 400/3/5
f 396/3/5 397/3/5 401/3/5
f 401/3/5 397/3/5 402/3/5
f 400/3/5 401/3/5 403/3/5
f 403/3/5 401/3/5 404/3/5
f 405/3/5 406/3/5 409/3/5
f 409/3/5 406/3/5 410/3/5
f 407/3/5 408/3/5 413/3/5
f 413/3/5 408/3/5 414/3/5
f 410/3/5 411/3/5 415/3/5
f 415/3/5 411/3/5 416/3/5
f 412/3/5 413/3/5 419/3/5
f 419/3/5 413/3/5 420/3/5
f 416/3/5 417/3/5 421/3/5
f 421/3/5 417/3/5 422/3/5
f 418/3/5 419/3/5 423/3/5
f 423/3/5 419/3/5 424/3/5
f 422/3/5 423/3/5 425/3/5
f 425/3/5 423/3/5 426/3/5
f 429/1/6 428/1/6 427/1/6
f 430/1/6 428/1/6 429/1/6
f 433/1/6 432/1/6 431/1/6
f 434/1/6 432/1/6 433/1/6
f 439/1/6 436/1/6 435/1/6
f 440/1/6 436/1/6 439/1/6
f 441/1/6 438/1/6 437/1/6
f 442/1/6 438/1/6 441/1/6
f 447/3/6 444/3/6 443/3/6
f 448/3/6 444/3/6 447/3/6
f 449/3/6 446/3/6 445/3/6
f 450/3/6 446/3/6 449/3/6
f 455/4/6 452/4/6 451/4/6
f 456/4/6 452/4/6 455/4/6
f 459/4/6 454/4/6 453/4/6
f 460/4/6 454/4/6 459/4/6
f 461/4/6 457/4/6 456/4/6
f 462/4/6 457/4/6 461/4/6
f 463/4/6 459/4/6 458/4/6
f 464/4/6 459/4/6 463/4/6
f 465/4/6 463/4/6 462/4/6
f 466/4/6 463/4/6 465/4/6
f 472/4/6 468/4/6 467/4/6
f 473/4/6 468/4/6 472/4/6
f 474/4/6 470/4/6 469/4/6
f 475/4/6 470/4/6 474/4/6
f 477/3/6 472/3/6 471/3/6
f 478/3/6 472/3/6 477/3/6
f 479/3/6 476/3/6 475/3/6
f 480/3/6 476/3/6 479/3/6
f 485/4/6 482/4/6 481/4/6
f 486/4/6 482/4/6 485/4/6
f 487/4/6 484/4/6 483/4/6
f 488/4/6 484/4/6 487/4/6
f 489/4/6 487/4/6 486/4/6
f 490/4/6 487/4/6 489/4/6
f 493/4/6 492/4/6 491/4/6
f 494/4/6 492/4/6 493/4/6
f 500/4/6 496/4/6 495/4/6
f 501/4/6 496/4/6 500/4/6
f 502/4/6 498/4/6 497/4/6
f 503/4/6 498/4/6 502/4/6
f 505/3/6 500/3/6 499/3/6
f 506/3/6 500/3/6 505/3/6
f 507/3/6 504/3/6 503/3/6
f 508/3/6 504/3/6 507/3/6
f 512/4/6 510/4/6 509/4/6
f 513/4/6 510/4/6 512/4/6
f 515/3/6 512/3/6 511/3/6
f 516/3/6 512/3/6 515/3/6
f 517/3/6 514/3/6 513/3/6
f 518/3/6 514/3/6 517/3/6
f 521/3/6 520/3/6 519/3/6
f 522/3/6 520/3/6 521/3/6
